REM DIRINDEX 1\6,1\2\7,1\2\8,1\2\9,1\3\10,1\3\11,1\4\12,1\4\13,1\4\14,1\5\15,1\5\16,1\5\17
REM DIRNAME cjc040,folder01,folder02,folder03,folder04,folder05,folder06,folder07,folder08,folder09,folder10,folder11,folder12,folder13,folder14,folder15,folder16
TITLE ""
FILE "P2Q_t_0340-0357.mp3" MP3
  TRACK 01 AUDIO
    TITLE "10:cjc040_2330"
    INDEX 01 00:00:00
  TRACK 02 AUDIO
    TITLE "0:"
    INDEX 01 00:01:21
  TRACK 03 AUDIO
    TITLE "11:cjc040_2331"
    INDEX 01 00:01:73
  TRACK 04 AUDIO
    TITLE "0:"
    INDEX 01 00:04:72
  TRACK 05 AUDIO
    TITLE "10:cjc040_2332"
    INDEX 01 00:05:52
  TRACK 06 AUDIO
    TITLE "0:"
    INDEX 01 00:07:07
  TRACK 07 AUDIO
    TITLE "11:cjc040_2333"
    INDEX 01 00:07:58
  TRACK 08 AUDIO
    TITLE "0:"
    INDEX 01 00:10:02
  TRACK 09 AUDIO
    TITLE "10:cjc040_2334"
    INDEX 01 00:10:57
  TRACK 10 AUDIO
    TITLE "0:"
    INDEX 01 00:11:62
  TRACK 11 AUDIO
    TITLE "11:cjc040_2335"
    INDEX 01 00:12:44
  TRACK 12 AUDIO
    TITLE "0:"
    INDEX 01 00:14:45
  TRACK 13 AUDIO
    TITLE "10:cjc040_2336"
    INDEX 01 00:15:30
  TRACK 14 AUDIO
    TITLE "0:"
    INDEX 01 00:16:44
  TRACK 15 AUDIO
    TITLE "11:cjc040_2337"
    INDEX 01 00:17:27
  TRACK 16 AUDIO
    TITLE "0:"
    INDEX 01 00:19:54
  TRACK 17 AUDIO
    TITLE "10:cjc040_2338"
    INDEX 01 00:20:39
  TRACK 18 AUDIO
    TITLE "0:"
    INDEX 01 00:21:58
  TRACK 19 AUDIO
    TITLE "11:cjc040_2339"
    INDEX 01 00:22:34
  TRACK 20 AUDIO
    TITLE "0:"
    INDEX 01 00:23:44
  TRACK 21 AUDIO
    TITLE "10:cjc040_2340"
    INDEX 01 00:24:22
  TRACK 22 AUDIO
    TITLE "0:"
    INDEX 01 00:25:48
  TRACK 23 AUDIO
    TITLE "11:cjc040_2341"
    INDEX 01 00:26:24
  TRACK 24 AUDIO
    TITLE "0:"
    INDEX 01 00:28:68
  TRACK 25 AUDIO
    TITLE "10:cjc040_2342"
    INDEX 01 00:29:42
  TRACK 26 AUDIO
    TITLE "0:"
    INDEX 01 00:30:48
  TRACK 27 AUDIO
    TITLE "11:cjc040_2343"
    INDEX 01 00:31:29
  TRACK 28 AUDIO
    TITLE "0:"
    INDEX 01 00:33:66
  TRACK 29 AUDIO
    TITLE "10:cjc040_2344"
    INDEX 01 00:34:49
  TRACK 30 AUDIO
    TITLE "0:"
    INDEX 01 00:35:70
  TRACK 31 AUDIO
    TITLE "11:cjc040_2345"
    INDEX 01 00:36:52
  TRACK 32 AUDIO
    TITLE "0:"
    INDEX 01 00:37:48
  TRACK 33 AUDIO
    TITLE "10:cjc040_2346"
    INDEX 01 00:38:30
  TRACK 34 AUDIO
    TITLE "0:"
    INDEX 01 00:39:52
  TRACK 35 AUDIO
    TITLE "11:cjc040_2347"
    INDEX 01 00:40:38
  TRACK 36 AUDIO
    TITLE "0:"
    INDEX 01 00:42:47
  TRACK 37 AUDIO
    TITLE "10:cjc040_2348"
    INDEX 01 00:43:19
  TRACK 38 AUDIO
    TITLE "0:"
    INDEX 01 00:44:36
  TRACK 39 AUDIO
    TITLE "11:cjc040_2349"
    INDEX 01 00:45:18
  TRACK 40 AUDIO
    TITLE "0:"
    INDEX 01 00:46:29
  TRACK 41 AUDIO
    TITLE "10:cjc040_2350"
    INDEX 01 00:47:11
  TRACK 42 AUDIO
    TITLE "0:"
    INDEX 01 00:48:24
  TRACK 43 AUDIO
    TITLE "11:cjc040_2351"
    INDEX 01 00:49:06
  TRACK 44 AUDIO
    TITLE "0:"
    INDEX 01 00:50:15
  TRACK 45 AUDIO
    TITLE "10:cjc040_2352"
    INDEX 01 00:50:72
  TRACK 46 AUDIO
    TITLE "0:"
    INDEX 01 00:52:20
  TRACK 47 AUDIO
    TITLE "11:cjc040_2353"
    INDEX 01 00:53:00
  TRACK 48 AUDIO
    TITLE "0:"
    INDEX 01 00:56:20
  TRACK 49 AUDIO
    TITLE "10:cjc040_2354"
    INDEX 01 00:56:71
  TRACK 50 AUDIO
    TITLE "0:"
    INDEX 01 00:58:15
  TRACK 51 AUDIO
    TITLE "11:cjc040_2355"
    INDEX 01 00:58:71
  TRACK 52 AUDIO
    TITLE "0:"
    INDEX 01 01:01:48
  TRACK 53 AUDIO
    TITLE "10:cjc040_2356"
    INDEX 01 01:02:20
  TRACK 54 AUDIO
    TITLE "0:"
    INDEX 01 01:03:26
  TRACK 55 AUDIO
    TITLE "11:cjc040_2357"
    INDEX 01 01:04:07
  TRACK 56 AUDIO
    TITLE "0:"
    INDEX 01 01:06:14
  TRACK 57 AUDIO
    TITLE "10:cjc040_2358"
    INDEX 01 01:06:71
  TRACK 58 AUDIO
    TITLE "0:"
    INDEX 01 01:08:01
  TRACK 59 AUDIO
    TITLE "11:cjc040_2359"
    INDEX 01 01:08:58
  TRACK 60 AUDIO
    TITLE "0:"
    INDEX 01 01:12:09
  TRACK 61 AUDIO
    TITLE "10:cjc040_2360"
    INDEX 01 01:12:58
  TRACK 62 AUDIO
    TITLE "0:"
    INDEX 01 01:14:08
  TRACK 63 AUDIO
    TITLE "11:cjc040_2361"
    INDEX 01 01:14:63
  TRACK 64 AUDIO
    TITLE "0:"
    INDEX 01 01:15:62
  TRACK 65 AUDIO
    TITLE "10:cjc040_2362"
    INDEX 01 01:16:42
  TRACK 66 AUDIO
    TITLE "0:"
    INDEX 01 01:17:69
  TRACK 67 AUDIO
    TITLE "11:cjc040_2363"
    INDEX 01 01:18:49
  TRACK 68 AUDIO
    TITLE "0:"
    INDEX 01 01:21:69
  TRACK 69 AUDIO
    TITLE "10:cjc040_2364"
    INDEX 01 01:22:48
  TRACK 70 AUDIO
    TITLE "0:"
    INDEX 01 01:23:65
  TRACK 71 AUDIO
    TITLE "11:cjc040_2365"
    INDEX 01 01:24:45
  TRACK 72 AUDIO
    TITLE "0:"
    INDEX 01 01:28:14
